# File produced by Open Asset Import Library (http://www.assimp.sf.net)
# (assimp v3.1.202510665)

mtllib SoccerBallTextured.mtl

# vertex positions
v -13.842913 -108.799965 42.604713
v -44.797581 -108.799667 0.000018
v -13.842913 -108.799988 -42.604679
v 36.241879 -108.799911 -26.330870
v 36.241879 -108.799896 26.330904
v 48.677097 -61.039158 88.028206
v 62.519760 -88.725410 45.422844
v 98.762054 -61.039024 19.091898
v 107.318001 -16.240591 45.423061
v 76.363457 -16.240585 88.028595
v 98.762054 -61.039028 -19.091883
v 62.519760 -88.725426 -45.422817
v 48.677097 -61.039196 -88.028198
v 76.363457 -16.240616 -88.028587
v 107.318001 -16.240610 -45.423054
v 63.613304 102.928856 -0.000017
v 83.270912 63.614067 -60.499641
v 19.657124 102.929169 -60.499447
v 60.122723 16.240576 -99.828171
v 10.037246 16.240585 -116.101974
v -12.362080 61.039219 -99.827660
v 23.880020 88.725533 -73.496223
v 68.678215 61.039009 -73.496384
v -31.807131 63.614235 -97.890419
v -51.464043 102.929138 -37.390388
v -76.363457 16.240585 -88.028595
v -107.318001 16.240591 -45.423061
v -98.762054 61.039024 -19.091906
v -62.519760 88.725410 -45.422844
v -48.677097 61.039158 -88.028206
v 13.842913 108.799988 42.604679
v 44.797581 108.799667 -0.000018
v 13.842913 108.799965 -42.604713
v -36.241879 108.799896 -26.330904
v -36.241879 108.799911 26.330870
v -102.928391 63.614037 -0.000010
v -51.464043 102.929153 37.390358
v -107.318001 16.240610 45.423058
v -76.363457 16.240616 88.028587
v -48.677094 61.039196 88.028198
v -62.519760 88.725426 45.422817
v -98.762054 61.039028 19.091879
v -31.807127 63.614269 97.890404
v 19.657124 102.929184 60.499420
v 10.037246 16.240623 116.101974
v 60.122723 16.240608 99.828178
v 68.678207 61.039028 73.496376
v 23.880024 88.725563 73.496201
v -12.362072 61.039246 99.827644
v 83.270905 63.614090 60.499622
v 115.078011 -0.000006 -37.390522
v 71.122055 -0.000016 -97.891029
v 0.000000 -0.000020 -120.999992
v -71.122055 -0.000016 -97.891029
v -115.078011 -0.000006 -37.390522
v -115.078011 0.000006 37.390522
v -71.122055 0.000016 97.891029
v 0.000000 0.000020 120.999992
v 71.122055 0.000016 97.891029
v 115.078011 0.000006 37.390522
v 113.521408 16.240604 26.330967
v 113.521408 16.240595 -26.330973
v 91.122169 61.039036 -42.604923
v 77.278908 88.725189 -0.000014
v 91.122154 61.039051 42.604900
v 31.807127 -63.614269 -97.890404
v -83.270905 -63.614090 -60.499622
v -83.270912 -63.614067 60.499641
v 31.807131 -63.614235 97.890419
v 102.928391 -63.614037 0.000010
v 51.464043 -102.929153 -37.390358
v -19.657124 -102.929184 -60.499420
v -23.880020 -88.725563 -73.496193
v -68.678207 -61.039028 -73.496368
v -60.122723 -16.240610 -99.828178
v -10.037246 -16.240623 -116.101974
v 12.362077 -61.039246 -99.827644
v -63.613304 -102.928856 0.000017
v -77.278908 -88.725189 0.000013
v -91.122169 -61.039036 42.604919
v -113.521408 -16.240593 26.330973
v -113.521408 -16.240604 -26.330967
v -91.122154 -61.039059 -42.604904
v -19.657124 -102.929169 60.499447
v -23.880020 -88.725533 73.496231
v 12.362077 -61.039219 99.827660
v -10.037246 -16.240585 116.101974
v -60.122726 -16.240574 99.828171
v -68.678207 -61.039009 73.496391
v 51.464043 -102.929138 37.390388

# UV coordinates
vt 0.736225 0.040875
vt 0.821682 0.000000
vt 0.890390 0.040875
vt 0.847397 0.107011
vt 0.752118 0.107011
vt 0.478886 0.336547
vt 0.394068 0.303541
vt 0.380241 0.213584
vt 0.456516 0.190990
vt 0.517483 0.266986
vt 0.830553 0.251454
vt 0.880364 0.167722
vt 0.968827 0.185317
vt 0.973689 0.279924
vt 0.888230 0.320799
vt 0.131579 0.367176
vt 0.226789 0.436351
vt 0.095210 0.479103
vt 0.273300 0.548279
vt 0.216032 0.627100
vt 0.123371 0.596991
vt 0.123372 0.499564
vt 0.216032 0.469457
vt 0.095209 0.617452
vt 0.000000 0.548276
vt 0.159482 0.096606
vt 0.098515 0.172602
vt 0.022241 0.150009
vt 0.036067 0.060051
vt 0.120885 0.027046
vt 0.798563 0.404468
vt 0.867271 0.363593
vt 0.952729 0.404468
vt 0.936836 0.470604
vt 0.841557 0.470604
vt 0.959345 0.498312
vt 0.894780 0.617212
vt 0.824047 0.498312
vt 0.800724 0.684392
vt 0.715265 0.643517
vt 0.720127 0.548910
vt 0.808589 0.531315
vt 0.858400 0.615047
vt 0.698429 0.523297
vt 0.762995 0.404397
vt 0.645007 0.311014
vt 0.587305 0.256255
vt 0.622636 0.165458
vt 0.702175 0.164102
vt 0.716001 0.254060
vt 0.716001 0.133958
vt 0.603056 0.135884
vt 0.629428 0.026044
vt 0.344477 0.436351
vt 0.308109 0.548279
vt 0.226789 0.660206
vt 0.131577 0.729380
vt 0.948176 0.715682
vt 0.812878 0.715682
vt 0.652586 0.544693
vt 0.571266 0.432767
vt 0.688954 0.432766
vt 0.552885 0.264817
vt 0.466311 0.156901
vt 0.482133 0.125157
vt 0.441190 0.056954
vt 0.512185 0.000000
vt 0.597003 0.033005
vt 0.578432 0.110356
vt 0.344477 0.660206
vt 0.194884 0.098776
vt 0.245055 0.227709
vt 0.108310 0.206692
vt 0.688954 0.656621
vt 0.571266 0.656621
vt 0.439686 0.475521
vt 0.476054 0.363593
vt 0.740777 0.352090
vt 0.794174 0.253619
vt 0.876075 0.352090
vt 0.864907 0.134719
vt 0.925958 0.040804
vt 0.990524 0.159704
vt 0.344174 0.199491
vt 0.264636 0.198135
vt 0.229304 0.107337
vt 0.287006 0.052578
vt 0.358001 0.109533
vt 0.358001 0.229634
vt 0.271427 0.337548
vt 0.239002 0.330587
vt 0.154184 0.363593
vt 0.083190 0.306639
vt 0.124132 0.238436
vt 0.220431 0.253237
vt 0.476056 0.725796
vt 0.439687 0.613869
vt 0.467849 0.593409
vt 0.467848 0.495981
vt 0.560509 0.465873
vt 0.617776 0.544693
vt 0.560509 0.623516
vt 0.729609 0.134719
vt 0.344477 0.544697
vt 0.444845 0.707550
vt 0.419234 0.628730
vt 0.357639 0.255576
vt 0.296673 0.331570
vt 0.352185 0.580017
vt 0.352185 0.509376
vt 0.419233 0.460660
vt 0.761469 0.251454
vt 0.716001 0.167722
vt 0.358001 0.188984
vt 0.498078 0.363593
vt 0.997428 0.294046
vt 0.000000 0.174609
vt 0.972952 0.531315
vt 0.927485 0.615047
vt 0.074756 0.632312
vt 0.007708 0.583597
vt 0.140077 0.000000
vt 0.654673 0.032022
vt 0.715640 0.108017
vt 0.074757 0.464242
vt 0.100369 0.385422
vt 0.007708 0.512955
vt 0.691525 0.657639
vt 0.634823 0.342576
vt 0.688954 0.500956
vt 0.734422 0.417225
vt 0.579078 0.408722
vt 0.661957 0.408722
vt 0.408172 0.060051
vt 0.234601 0.412306
vt 0.317480 0.412307
vt 0.167553 0.363593
vt 0.276823 0.021017
vt 0.317480 0.684250
vt 0.234601 0.684250
vt 0.954531 0.053632
vt 1.000000 0.137364
vt 0.579078 0.680666
vt 0.512030 0.729380
vt 0.661957 0.680665
vt 0.050171 0.303541

# vertex normals
vn -0.000002 -1.000000 0.000000
vn 0.723608 -0.447215 0.525729
vn 0.723608 -0.447215 -0.525729
vn 0.491119 0.794657 -0.356821
vn 0.276392 0.447216 -0.850650
vn -0.187594 0.794658 -0.577345
vn -0.723608 0.447215 -0.525729
vn 0.000002 1.000000 -0.000000
vn -0.607060 0.794656 -0.000000
vn -0.723608 0.447215 0.525729
vn -0.187594 0.794658 0.577345
vn 0.276392 0.447217 0.850650
vn 0.491119 0.794658 0.356821
vn 0.794656 0.187595 -0.577348
vn -0.303531 0.187597 -0.934171
vn -0.982246 0.187599 -0.000000
vn -0.303531 0.187597 0.934171
vn 0.794656 0.187595 0.577348
vn 0.894426 0.447215 -0.000000
vn 0.303531 -0.187597 -0.934171
vn -0.794656 -0.187595 -0.577348
vn -0.794656 -0.187595 0.577348
vn 0.303531 -0.187597 0.934171
vn 0.982246 -0.187599 0.000000
vn 0.187594 -0.794658 -0.577345
vn -0.276392 -0.447217 -0.850650
vn -0.491119 -0.794658 -0.356821
vn -0.894426 -0.447215 0.000000
vn -0.491119 -0.794657 0.356821
vn -0.276392 -0.447217 0.850650
vn 0.607060 -0.794656 0.000000
vn 0.187594 -0.794658 0.577345
vn -0.291118 -0.933014 0.211508
vn -0.291118 -0.933014 -0.211507
vn 0.111199 -0.933015 -0.342226
vn 0.359838 -0.933015 0.000000
vn 0.111199 -0.933014 0.342226
vn 0.445491 -0.677643 0.585097
vn 0.694126 -0.677642 0.242877
vn 0.916523 -0.317800 0.242875
vn 0.805328 -0.095408 0.585102
vn 0.514213 -0.317801 0.796610
vn 0.694126 -0.677642 -0.242877
vn 0.445490 -0.677643 -0.585096
vn 0.514212 -0.317801 -0.796610
vn 0.805328 -0.095409 -0.585102
vn 0.916523 -0.317800 -0.242875
vn 0.307608 0.095411 -0.946718
vn -0.052233 0.317804 -0.946717
vn 0.016491 0.677641 -0.735208
vn 0.418800 0.677642 -0.604490
vn 0.598721 0.317803 -0.735210
vn -0.805328 0.095408 -0.585102
vn -0.916523 0.317800 -0.242875
vn -0.694126 0.677642 -0.242877
vn -0.445490 0.677643 -0.585097
vn -0.514213 0.317801 -0.796610
vn 0.291118 0.933014 0.211507
vn 0.291118 0.933014 -0.211508
vn -0.111199 0.933014 -0.342226
vn -0.359838 0.933015 -0.000000
vn -0.111199 0.933015 0.342226
vn -0.805328 0.095409 0.585102
vn -0.514212 0.317801 0.796610
vn -0.445491 0.677643 0.585096
vn -0.694126 0.677642 0.242877
vn -0.916523 0.317800 0.242874
vn 0.307608 0.095411 0.946718
vn 0.598722 0.317803 0.735210
vn 0.418800 0.677642 0.604490
vn 0.016491 0.677642 0.735207
vn -0.052233 0.317804 0.946717
vn 0.995438 0.095409 0.000000
vn 0.884242 0.317801 -0.342227
vn 0.704321 0.677641 -0.211506
vn 0.704321 0.677641 0.211506
vn 0.884242 0.317801 0.342227
vn -0.418800 -0.677642 -0.604490
vn -0.598722 -0.317803 -0.735210
vn -0.307608 -0.095411 -0.946718
vn 0.052233 -0.317804 -0.946717
vn -0.016491 -0.677642 -0.735207
vn -0.704321 -0.677641 0.211506
vn -0.884242 -0.317801 0.342227
vn -0.995438 -0.095409 -0.000000
vn -0.884242 -0.317801 -0.342227
vn -0.704320 -0.677641 -0.211506
vn -0.016491 -0.677641 0.735208
vn 0.052233 -0.317804 0.946717
vn -0.307608 -0.095410 0.946718
vn -0.598721 -0.317803 0.735210
vn -0.418800 -0.677642 0.604490

# Mesh
g Icosphere
usemtl DefaultMaterial
f 5/5/1 1/1/1 2/2/1
f 5/5/1 2/2/1 3/3/1
f 3/3/1 4/4/1 5/5/1
f 10/10/2 6/6/2 7/7/2
f 10/10/2 7/7/2 8/8/2
f 8/8/2 9/9/2 10/10/2
f 15/15/3 11/11/3 12/12/3
f 15/15/3 12/12/3 13/13/3
f 13/13/3 14/14/3 15/15/3
f 16/16/4 17/17/4 18/18/4
f 23/23/5 19/19/5 20/20/5
f 23/23/5 20/20/5 21/21/5
f 21/21/5 22/22/5 23/23/5
f 18/18/6 24/24/6 25/25/6
f 30/30/7 26/26/7 27/27/7
f 30/30/7 27/27/7 28/28/7
f 28/28/7 29/29/7 30/30/7
f 35/35/8 31/31/8 32/32/8
f 35/35/8 32/32/8 33/33/8
f 33/33/8 34/34/8 35/35/8
f 25/36/9 36/37/9 37/38/9
f 42/43/10 38/39/10 39/40/10
f 42/43/10 39/40/10 40/41/10
f 40/41/10 41/42/10 42/43/10
f 37/38/11 43/44/11 44/45/11
f 49/50/12 45/46/12 46/47/12
f 49/50/12 46/47/12 47/48/12
f 47/48/12 48/49/12 49/50/12
f 44/51/13 50/52/13 16/53/13
f 51/54/14 52/55/14 17/17/14
f 53/56/15 54/57/15 24/24/15
f 55/58/16 56/59/16 36/37/16
f 57/60/17 58/61/17 43/62/17
f 59/63/18 60/64/18 50/52/18
f 65/69/19 61/65/19 62/66/19
f 65/69/19 62/66/19 63/67/19
f 63/67/19 64/68/19 65/69/19
f 52/55/20 66/70/20 53/56/20
f 54/71/21 67/72/21 55/73/21
f 56/74/22 68/75/22 57/60/22
f 58/61/23 69/76/23 59/77/23
f 60/78/24 70/79/24 51/80/24
f 71/81/25 72/82/25 66/83/25
f 77/88/26 73/84/26 74/85/26
f 77/88/26 74/85/26 75/86/26
f 75/86/26 76/87/26 77/88/26
f 72/89/27 78/90/27 67/72/27
f 83/95/28 79/91/28 80/92/28
f 83/95/28 80/92/28 81/93/28
f 81/93/28 82/94/28 83/95/28
f 78/96/29 84/97/29 68/75/29
f 89/102/30 85/98/30 86/99/30
f 89/102/30 86/99/30 87/100/30
f 87/100/30 88/101/30 89/102/30
f 70/79/31 90/103/31 71/81/31
f 84/97/32 90/104/32 69/76/32
f 1/106/33 84/97/33 78/96/33
f 78/96/33 2/105/33 1/106/33
f 2/108/34 78/90/34 72/89/34
f 72/89/34 3/107/34 2/108/34
f 3/3/35 72/82/35 71/81/35
f 71/81/35 4/4/35 3/3/35
f 4/4/36 71/81/36 90/103/36
f 90/103/36 5/5/36 4/4/36
f 5/109/37 90/104/37 84/97/37
f 84/97/37 1/106/37 5/109/37
f 6/111/38 69/76/38 90/104/38
f 90/104/38 7/110/38 6/111/38
f 7/113/39 90/103/39 70/79/39
f 70/79/39 8/112/39 7/113/39
f 8/8/40 70/114/40 60/64/40
f 60/64/40 9/9/40 8/8/40
f 9/9/41 60/64/41 59/63/41
f 59/63/41 10/10/41 9/9/41
f 10/10/42 59/63/42 69/115/42
f 69/115/42 6/6/42 10/10/42
f 11/11/43 70/79/43 71/81/43
f 71/81/43 12/12/43 11/11/43
f 12/12/44 71/81/44 66/83/44
f 66/83/44 13/13/44 12/12/44
f 13/13/45 66/83/45 52/116/45
f 52/116/45 14/14/45 13/13/45
f 14/14/46 52/116/46 51/80/46
f 51/80/46 15/15/46 14/14/46
f 15/15/47 51/80/47 70/79/47
f 70/79/47 11/11/47 15/15/47
f 19/19/48 52/55/48 53/56/48
f 53/56/48 20/20/48 19/19/48
f 20/20/49 53/56/49 24/24/49
f 24/24/49 21/21/49 20/20/49
f 21/21/50 24/24/50 18/18/50
f 18/18/50 22/22/50 21/21/50
f 22/22/51 18/18/51 17/17/51
f 17/17/51 23/23/51 22/22/51
f 23/23/52 17/17/52 52/55/52
f 52/55/52 19/19/52 23/23/52
f 26/26/53 54/71/53 55/73/53
f 55/73/53 27/27/53 26/26/53
f 27/27/54 55/73/54 36/117/54
f 36/117/54 28/28/54 27/27/54
f 28/119/55 36/37/55 25/36/55
f 25/36/55 29/118/55 28/119/55
f 29/121/56 25/25/56 24/24/56
f 24/24/56 30/120/56 29/121/56
f 30/30/57 24/122/57 54/71/57
f 54/71/57 26/26/57 30/30/57
f 31/124/58 44/51/58 16/53/58
f 16/53/58 32/123/58 31/124/58
f 32/126/59 16/16/59 18/18/59
f 18/18/59 33/125/59 32/126/59
f 33/125/60 18/18/60 25/25/60
f 25/25/60 34/127/60 33/125/60
f 34/34/61 25/36/61 37/38/61
f 37/38/61 35/35/61 34/34/61
f 35/35/62 37/38/62 44/45/62
f 44/45/62 31/31/62 35/35/62
f 38/39/63 56/59/63 57/128/63
f 57/128/63 39/40/63 38/39/63
f 39/40/64 57/128/64 43/44/64
f 43/44/64 40/41/64 39/40/64
f 40/41/65 43/44/65 37/38/65
f 37/38/65 41/42/65 40/41/65
f 41/42/66 37/38/66 36/37/66
f 36/37/66 42/43/66 41/42/66
f 42/43/67 36/37/67 56/59/67
f 56/59/67 38/39/67 42/43/67
f 45/46/68 58/129/68 59/63/68
f 59/63/68 46/47/68 45/46/68
f 46/47/69 59/63/69 50/52/69
f 50/52/69 47/48/69 46/47/69
f 47/48/70 50/52/70 44/51/70
f 44/51/70 48/49/70 47/48/70
f 48/131/71 44/45/71 43/44/71
f 43/44/71 49/130/71 48/131/71
f 49/133/72 43/62/72 58/61/72
f 58/61/72 45/132/72 49/133/72
f 61/65/73 60/64/73 51/134/73
f 51/134/73 62/66/73 61/65/73
f 62/136/74 51/54/74 17/17/74
f 17/17/74 63/135/74 62/136/74
f 63/135/75 17/17/75 16/16/75
f 16/16/75 64/137/75 63/135/75
f 64/68/76 16/53/76 50/52/76
f 50/52/76 65/69/76 64/68/76
f 65/69/77 50/52/77 60/64/77
f 60/64/77 61/65/77 65/69/77
f 73/84/78 72/89/78 67/72/78
f 67/72/78 74/85/78 73/84/78
f 74/85/79 67/72/79 54/71/79
f 54/71/79 75/86/79 74/85/79
f 75/86/80 54/71/80 53/138/80
f 53/138/80 76/87/80 75/86/80
f 76/140/81 53/56/81 66/70/81
f 66/70/81 77/139/81 76/140/81
f 77/142/82 66/83/82 72/82/82
f 72/82/82 73/141/82 77/142/82
f 79/144/83 78/96/83 68/75/83
f 68/75/83 80/143/83 79/144/83
f 80/143/84 68/75/84 56/74/84
f 56/74/84 81/145/84 80/143/84
f 81/93/85 56/146/85 55/73/85
f 55/73/85 82/94/85 81/93/85
f 82/94/86 55/73/86 67/72/86
f 67/72/86 83/95/86 82/94/86
f 83/95/87 67/72/87 78/90/87
f 78/90/87 79/91/87 83/95/87
f 85/98/88 84/97/88 69/76/88
f 69/76/88 86/99/88 85/98/88
f 86/99/89 69/76/89 58/61/89
f 58/61/89 87/100/89 86/99/89
f 87/100/90 58/61/90 57/60/90
f 57/60/90 88/101/90 87/100/90
f 88/101/91 57/60/91 68/75/91
f 68/75/91 89/102/91 88/101/91
f 89/102/92 68/75/92 84/97/92
f 84/97/92 85/98/92 89/102/92
